<svg width="64" height="64" viewBox="0 0 64 64" xmlns="http://www.w3.org/2000/svg">
  <defs><linearGradient id="b" x1="8" y1="4" x2="55" y2="60" gradientUnits="userSpaceOnUse"><stop stop-color="#168DFF"/><stop offset="1" stop-color="#0055C8"/></linearGradient></defs>
  <rect x="4" y="4" width="56" height="56" rx="17" fill="url(#b)"/>
  <path d="M19 45V18h12.7c7.1 0 11.4 3.6 11.4 9.4 0 4.2-2.2 7.2-6.2 8.5L44 45h-7.2l-6.1-8.1h-5.3V45H19Zm6.4-13.5h5.8c3.5 0 5.4-1.3 5.4-3.9 0-2.7-1.9-4-5.4-4h-5.8v7.9Z" fill="white"/>
  <circle cx="51" cy="51" r="11" fill="#20C86B" stroke="white" stroke-width="4"/>
  <path d="m46.5 51 3 3 6-7" fill="none" stroke="white" stroke-width="3" stroke-linecap="round" stroke-linejoin="round"/>
</svg>
